<svg xmlns="http://www.w3.org/2000/svg" width="24" height="24" fill="#3d50f5"><path d="M5.202 8.375 7.66 9v5.261l4.854 1.239v1.214l.008.003v6.35l-2.439-.58v-5.039L7.66 16.83v5.014l-2.439-.581-.019-12.888Z" style="transform-box:fill-box;transform-origin:50% 50%" transform="rotate(-52)"/><path d="m5.109 4.018 2.865.731v2.51l-2.815-.658v6.174l-2.439-.581-.008-8.782 2.397.609v-.003Z" style="transform-box:fill-box;transform-origin:50% 50%" transform="rotate(-52)"/><path d="m12.398 3.92-.002-1.877 8.229 2.072.004 2.476-5.787-1.433v5.243l5.794 1.479.008 2.583-.011-.002-8.215-2.064-.02-8.477Z" style="transform-box:fill-box;transform-origin:50% 50%" transform="rotate(-52 0 0)"/></svg>
